<svg xmlns="http://www.w3.org/2000/svg" width="855" height="855" viewBox="0 0 855 855">
<g>
<path d="M 405.50 688.63 C399.50,691.45 398.51,691.50 394.03,689.25 C388.83,686.62 386.48,681.82 386.58,674.00 C386.79,656.95 401.73,642.69 411.85,649.89 C418.05,654.31 419.84,668.26 415.53,678.58 C413.31,683.89 411.30,685.91 405.50,688.63 ZM 480.28 690.63 C475.26,692.77 471.56,691.84 466.66,687.19 C462.29,683.04 460.84,679.37 460.26,670.97 C459.80,664.22 460.03,662.66 462.10,658.52 C465.31,652.09 468.20,650.00 473.88,650.00 C482.22,650.01 486.69,654.41 489.64,665.50 C491.38,672.00 491.34,675.78 489.50,681.01 C487.83,685.74 485.12,688.56 480.28,690.63 ZM 395.44 632.96 C392.72,634.26 388.19,635.52 385.36,635.77 C381.10,636.15 379.87,635.87 378.11,634.11 C376.95,632.95 376.00,631.13 376.00,630.07 C376.00,627.91 380.42,624.00 382.88,623.99 C385.33,623.98 394.12,618.61 397.44,615.10 C399.50,612.93 401.30,612.00 403.49,612.00 C407.63,612.00 409.00,613.59 409.00,618.37 C409.00,621.75 408.35,622.96 404.69,626.47 C402.32,628.74 398.16,631.66 395.44,632.96 ZM 509.42 638.09 C506.21,641.63 498.73,640.09 489.97,634.08 C478.57,626.26 476.62,616.96 485.89,614.70 C487.84,614.22 489.39,615.19 494.14,619.81 C497.36,622.94 502.35,626.63 505.24,628.02 C509.52,630.06 510.56,631.06 510.82,633.35 C511.02,635.02 510.44,636.96 509.42,638.09 ZM 774.00 742.00 C774.00,742.55 773.30,743.00 772.44,743.00 C771.58,743.00 771.16,742.55 771.50,742.00 C771.84,741.45 772.54,741.00 773.06,741.00 C773.58,741.00 774.00,741.45 774.00,742.00 Z" fill="rgb(45,49,2)"/>
<path d="M 746.74 764.77 C735.13,767.77 721.23,764.61 712.50,756.98 C710.99,755.66 708.07,755.11 700.50,754.73 C692.15,754.31 689.69,753.79 685.62,751.58 C678.25,747.56 672.52,743.41 669.64,739.98 C666.67,736.46 663.90,728.12 664.68,725.10 C664.98,723.98 664.74,721.70 664.16,720.04 C663.26,717.44 663.38,716.87 665.05,715.97 C666.12,715.40 667.88,713.20 668.95,711.09 C671.30,706.50 675.48,702.82 682.39,699.26 C687.00,696.89 688.52,696.65 698.00,696.74 C711.39,696.87 720.77,697.90 724.20,699.64 C725.69,700.39 729.12,701.00 731.82,701.00 C739.60,701.00 747.34,704.04 755.34,710.25 C758.00,712.31 760.56,714.00 761.02,714.00 C761.48,714.00 763.70,717.33 765.94,721.40 C768.19,725.47 770.76,729.08 771.65,729.42 C773.08,729.97 773.21,729.21 772.77,723.06 C771.68,707.83 761.64,695.24 743.13,685.91 C732.92,680.76 725.57,678.90 712.99,678.28 C690.48,677.17 672.43,686.29 663.97,703.06 C661.13,708.69 660.88,709.79 661.88,712.54 C663.32,716.54 663.29,717.00 661.58,717.00 C660.80,717.00 659.93,717.56 659.65,718.25 C659.29,719.11 658.47,718.74 657.03,717.10 C654.84,714.59 649.74,713.56 633.50,712.35 C629.65,712.06 625.97,711.38 625.31,710.84 C624.66,710.30 620.61,709.83 616.31,709.80 C612.02,709.77 607.87,709.24 607.10,708.62 C605.77,707.56 601.62,707.16 571.00,705.13 C564.12,704.67 556.92,703.75 555.00,703.10 C552.56,702.26 547.65,702.10 538.82,702.56 C528.07,703.12 525.80,702.97 523.85,701.61 C521.88,700.23 517.71,700.00 494.21,700.00 C474.17,700.00 466.29,699.67 464.68,698.75 C463.07,697.83 454.77,697.50 433.00,697.50 C411.23,697.50 402.93,697.83 401.32,698.75 C399.73,699.66 392.39,700.00 374.59,700.00 C354.30,700.00 349.34,700.28 346.00,701.62 C342.50,703.02 340.90,703.07 334.23,702.05 C326.64,700.88 311.70,701.83 308.71,703.68 C308.06,704.08 302.35,704.76 296.02,705.19 C259.40,707.70 247.92,708.94 242.64,710.95 C241.12,711.53 236.64,712.02 232.68,712.04 C228.35,712.06 224.51,712.64 223.00,713.50 C221.62,714.29 218.68,714.95 216.45,714.96 C213.06,714.99 211.71,715.68 208.24,719.12 C205.95,721.38 203.54,724.86 202.89,726.84 C202.23,728.83 200.87,731.81 199.85,733.48 C198.84,735.14 198.01,737.27 198.00,738.21 C198.00,740.55 194.40,743.71 190.14,745.12 C188.19,745.76 184.10,747.39 181.05,748.74 C176.95,750.56 173.34,751.28 167.25,751.51 C159.85,751.78 158.04,752.27 149.75,756.28 C138.78,761.58 129.29,764.47 125.35,763.71 C123.78,763.40 119.65,762.17 116.17,760.96 C109.74,758.74 105.94,755.72 98.77,747.15 L 95.14 742.80 L 86.82 742.65 C81.47,742.55 76.54,743.10 73.00,744.18 C64.20,746.87 51.69,748.91 49.89,747.94 C48.90,747.41 48.01,745.13 47.60,742.06 C47.06,737.95 47.34,736.27 49.18,732.77 C51.16,728.99 51.37,727.41 50.98,719.00 C49.96,697.14 50.70,680.96 53.31,668.43 C57.88,646.49 67.87,620.75 77.54,606.00 C79.52,602.97 82.75,597.35 84.71,593.51 C86.67,589.66 89.30,585.16 90.55,583.51 C92.71,580.65 94.89,576.86 100.94,565.50 C102.40,562.75 104.81,558.67 106.30,556.44 C107.79,554.21 110.41,547.91 112.12,542.44 C113.82,536.97 116.05,530.88 117.06,528.90 C121.53,520.11 128.44,485.67 129.98,464.50 C133.04,422.45 135.37,409.54 144.63,383.50 C147.17,376.35 149.47,369.07 149.73,367.33 C149.99,365.59 150.94,363.34 151.85,362.33 C152.76,361.32 154.30,358.92 155.28,357.00 C156.26,355.08 158.59,350.93 160.45,347.78 C162.32,344.63 164.17,341.03 164.56,339.78 C164.95,338.53 167.01,335.41 169.13,332.86 C171.26,330.31 173.00,327.78 173.00,327.23 C173.00,326.69 173.60,325.75 174.34,325.14 C175.07,324.53 176.75,321.93 178.06,319.37 C179.38,316.82 181.70,313.39 183.23,311.76 C184.75,310.12 186.00,308.40 186.00,307.92 C186.00,307.44 187.46,306.30 189.25,305.37 C192.81,303.53 210.00,286.85 210.00,285.24 C210.00,284.69 211.38,283.67 213.07,282.97 C214.76,282.27 218.90,278.62 222.28,274.85 C225.65,271.08 229.08,268.00 229.91,268.00 C230.73,268.00 232.81,266.64 234.52,264.98 C236.24,263.31 238.51,261.76 239.57,261.52 C245.97,260.07 254.24,256.06 256.50,253.31 C257.05,252.64 261.01,251.17 265.30,250.03 C269.59,248.89 274.99,247.10 277.30,246.05 C279.61,245.00 284.42,243.83 287.99,243.45 C292.46,242.96 294.87,242.20 295.72,241.00 C296.70,239.59 298.47,239.24 304.72,239.21 C309.00,239.19 316.10,238.69 320.50,238.11 C329.61,236.90 335.08,236.74 361.00,236.92 C384.18,237.08 394.12,238.18 401.86,241.44 C405.21,242.85 408.88,244.00 410.02,244.00 C411.17,244.00 413.76,245.12 415.79,246.50 C418.07,248.05 420.87,249.00 423.16,249.00 C425.66,249.00 427.83,249.83 429.90,251.57 C431.58,252.99 433.31,253.92 433.75,253.66 C434.18,253.39 436.33,254.01 438.52,255.05 C440.71,256.09 442.98,256.95 443.56,256.97 C444.14,256.98 446.16,258.16 448.06,259.58 C449.95,260.99 454.20,263.47 457.50,265.09 C464.90,268.71 470.27,271.99 473.24,274.69 C475.85,277.08 486.90,282.99 488.75,283.00 C489.43,283.00 491.68,284.49 493.75,286.32 C497.75,289.86 500.42,291.55 511.50,297.57 C515.35,299.66 520.75,302.63 523.50,304.17 C526.25,305.71 529.62,307.45 531.00,308.04 C532.38,308.63 537.10,310.87 541.50,313.01 C545.90,315.16 554.90,318.59 561.50,320.64 C568.10,322.69 574.40,324.93 575.50,325.62 C578.44,327.46 585.27,328.90 596.00,329.94 C601.22,330.45 609.10,331.55 613.50,332.38 C617.90,333.22 624.88,334.40 629.00,335.02 C633.12,335.64 638.08,336.54 640.00,337.02 C646.76,338.73 664.53,344.25 667.65,345.62 C669.38,346.38 671.09,347.00 671.44,347.00 C671.80,347.00 673.05,347.90 674.23,349.00 C675.41,350.10 677.35,351.00 678.53,351.00 C679.72,351.00 683.26,353.25 686.40,356.00 C689.55,358.75 692.54,361.00 693.07,361.00 C694.28,361.00 707.92,371.09 710.28,373.73 C711.26,374.83 713.79,376.51 715.91,377.46 C718.04,378.42 720.26,380.28 720.86,381.60 C721.47,382.92 722.33,384.00 722.78,384.00 C723.94,384.00 734.01,396.41 738.32,403.16 C740.31,406.27 743.30,410.31 744.97,412.13 C746.64,413.95 748.00,415.97 748.00,416.60 C748.00,417.24 748.68,418.32 749.51,419.01 C751.25,420.45 756.18,430.61 758.00,436.50 C758.69,438.70 760.05,441.85 761.05,443.50 C762.04,445.15 763.96,449.42 765.31,453.00 C766.67,456.58 769.18,463.02 770.89,467.31 C772.60,471.61 774.00,476.43 774.00,478.02 C774.00,479.61 774.42,481.94 774.93,483.20 C776.91,488.10 782.00,505.79 782.00,507.78 C782.00,508.94 782.40,510.13 782.88,510.43 C784.08,511.17 785.07,521.22 785.30,535.10 C785.44,543.03 785.92,547.20 786.83,548.30 C787.57,549.18 787.89,550.78 787.55,551.85 C787.21,552.92 787.57,555.30 788.35,557.14 C790.81,563.00 792.00,567.54 792.00,571.12 C792.00,573.03 792.48,575.08 793.06,575.66 C793.65,576.25 794.79,579.93 795.60,583.84 C797.42,592.63 801.10,602.60 805.43,610.50 C807.24,613.80 810.45,621.67 812.55,628.00 C814.66,634.33 816.71,639.73 817.10,640.00 C817.89,640.56 822.00,652.31 822.00,654.02 C822.00,654.61 822.87,656.89 823.93,659.09 C824.99,661.29 826.15,664.39 826.49,665.97 C826.84,667.56 827.75,669.38 828.50,670.00 C829.26,670.63 829.63,671.79 829.33,672.58 C828.55,674.62 829.63,678.22 831.73,680.52 C832.72,681.61 834.54,683.80 835.77,685.38 C837.25,687.30 838.00,687.74 838.00,686.69 C838.00,685.83 838.46,684.83 839.03,684.48 C839.72,684.05 839.97,688.22 839.78,697.17 C839.55,708.23 839.24,710.50 838.00,710.50 C836.87,710.50 836.45,711.87 836.30,716.00 C836.06,722.52 834.09,735.08 833.08,736.50 C832.69,737.05 831.52,740.20 830.49,743.50 C828.42,750.10 826.55,752.68 823.48,753.16 C821.24,753.51 813.86,751.50 810.00,749.49 C808.62,748.78 805.25,747.86 802.50,747.47 C799.75,747.07 796.28,746.12 794.80,745.37 C793.31,744.62 790.37,744.00 788.25,744.00 C786.13,744.00 783.89,743.49 783.28,742.88 C782.56,742.16 780.52,741.99 777.68,742.42 C773.74,743.01 772.48,743.92 766.96,750.13 C763.52,753.99 758.86,758.32 756.60,759.73 C754.35,761.14 752.28,762.58 752.00,762.92 C751.72,763.26 749.36,764.09 746.74,764.77 ZM 91.92 734.36 C93.47,738.34 95.09,736.75 99.88,726.52 C104.40,716.88 109.41,710.95 115.56,707.97 C118.00,706.79 120.22,705.45 120.50,704.99 C120.79,704.53 124.05,703.84 127.76,703.46 C131.47,703.07 135.02,702.34 135.65,701.84 C137.21,700.59 142.53,698.95 148.00,698.01 C150.48,697.59 156.26,696.48 160.86,695.56 C172.28,693.27 184.71,694.66 193.21,699.19 C196.41,700.90 199.32,702.01 199.68,701.65 C200.89,700.45 196.50,693.79 191.55,689.31 C178.40,677.42 159.05,673.65 137.76,678.83 C118.77,683.45 100.68,696.72 94.27,710.73 C91.28,717.25 90.06,729.56 91.92,734.36 ZM 405.50 688.63 C411.30,685.91 413.31,683.89 415.53,678.58 C419.84,668.26 418.05,654.31 411.85,649.89 C401.73,642.69 386.79,656.95 386.58,674.00 C386.48,681.82 388.83,686.62 394.03,689.25 C398.51,691.50 399.50,691.45 405.50,688.63 ZM 480.28 690.63 C485.12,688.56 487.83,685.74 489.50,681.01 C491.34,675.78 491.38,672.00 489.64,665.50 C486.69,654.41 482.22,650.01 473.88,650.00 C468.20,650.00 465.31,652.09 462.10,658.52 C460.03,662.66 459.80,664.22 460.26,670.97 C460.84,679.37 462.29,683.04 466.66,687.19 C471.56,691.84 475.26,692.77 480.28,690.63 ZM 395.44 632.96 C398.16,631.66 402.32,628.74 404.69,626.47 C408.35,622.96 409.00,621.75 409.00,618.37 C409.00,613.59 407.63,612.00 403.49,612.00 C401.30,612.00 399.50,612.93 397.44,615.10 C394.12,618.61 385.33,623.98 382.88,623.99 C380.42,624.00 376.00,627.91 376.00,630.07 C376.00,631.13 376.95,632.95 378.11,634.11 C379.87,635.87 381.10,636.15 385.36,635.77 C388.19,635.52 392.72,634.26 395.44,632.96 ZM 509.42 638.09 C510.44,636.96 511.02,635.02 510.82,633.35 C510.56,631.06 509.52,630.06 505.24,628.02 C502.35,626.63 497.36,622.94 494.14,619.81 C489.39,615.19 487.84,614.22 485.89,614.70 C476.62,616.96 478.57,626.26 489.97,634.08 C498.73,640.09 506.21,641.63 509.42,638.09 ZM 774.00 742.00 C774.00,741.45 773.58,741.00 773.06,741.00 C772.54,741.00 771.84,741.45 771.50,742.00 C771.16,742.55 771.58,743.00 772.44,743.00 C773.30,743.00 774.00,742.55 774.00,742.00 Z" fill="rgb(198,220,27)"/>
<path d="M 752.32 765.15 C746.69,767.71 744.99,767.99 735.77,767.94 C727.04,767.89 724.68,767.51 720.00,765.39 C716.97,764.02 713.02,761.46 711.21,759.71 C708.04,756.65 707.53,756.51 697.62,756.01 C688.15,755.54 686.73,755.19 679.91,751.67 C675.84,749.57 671.26,746.78 669.74,745.46 C666.73,742.86 660.01,730.60 660.00,727.70 C660.00,725.03 657.32,720.34 654.78,718.56 C653.56,717.70 650.86,717.00 648.79,717.00 C646.72,717.00 643.11,716.57 640.76,716.04 C634.35,714.58 623.51,712.96 614.00,712.02 C609.33,711.56 599.65,710.42 592.50,709.49 C579.27,707.76 568.39,706.86 539.09,705.09 C530.07,704.54 521.97,703.75 521.09,703.32 C518.96,702.29 466.34,700.87 431.50,700.90 C399.64,700.93 350.74,702.37 347.00,703.39 C345.62,703.77 336.40,704.52 326.50,705.07 C295.72,706.77 268.41,709.35 263.60,711.00 C262.01,711.55 257.59,712.00 253.79,712.00 C249.98,712.00 245.89,712.52 244.70,713.16 C243.51,713.80 238.48,714.68 233.52,715.11 C212.12,717.00 208.79,718.33 206.07,726.06 C202.69,735.63 197.93,742.88 193.11,745.76 C182.02,752.41 176.76,754.00 165.81,754.00 C157.95,754.00 156.48,754.29 153.68,756.38 C146.51,761.75 135.05,765.94 127.50,765.96 C120.61,765.98 107.99,761.91 104.85,758.66 C104.11,757.89 100.64,754.27 97.15,750.63 C91.20,744.42 90.52,744.00 86.39,744.00 C83.96,744.00 81.19,744.41 80.24,744.90 C79.28,745.40 75.80,746.56 72.50,747.49 C69.20,748.43 63.58,750.10 60.00,751.22 C56.43,752.34 52.51,753.25 51.30,753.25 C46.83,753.25 42.80,746.14 37.27,728.50 C34.13,718.50 34.29,673.29 37.50,663.00 C38.44,659.97 39.53,655.70 39.93,653.50 C40.64,649.57 42.84,642.92 47.70,630.00 C50.80,621.77 59.94,603.56 64.68,596.17 C66.68,593.05 69.33,588.22 70.56,585.43 C71.80,582.64 73.97,578.66 75.39,576.57 C78.41,572.11 94.00,540.70 94.00,539.06 C94.00,538.44 95.05,535.81 96.34,533.22 C97.63,530.62 99.19,526.47 99.80,524.00 C100.42,521.53 101.90,515.67 103.08,511.00 C104.27,506.33 105.55,500.25 105.92,497.50 C106.29,494.75 107.19,491.41 107.92,490.09 C108.85,488.39 109.05,485.78 108.58,481.22 C108.04,475.93 108.24,474.30 109.71,472.13 C111.29,469.80 111.46,467.46 111.17,451.35 C110.89,435.77 111.08,432.74 112.55,429.90 C113.92,427.26 114.13,425.11 113.63,419.19 C113.16,413.57 113.38,411.01 114.55,408.54 C115.40,406.75 116.23,402.19 116.41,398.40 C116.59,394.60 117.51,388.80 118.45,385.50 C119.40,382.20 120.54,377.21 120.98,374.41 C121.42,371.61 122.23,368.46 122.77,367.41 C123.31,366.36 124.53,363.02 125.46,360.00 C127.45,353.59 127.86,352.50 131.31,344.50 C132.73,341.20 134.43,336.70 135.08,334.50 C135.73,332.30 137.70,328.02 139.45,325.00 C141.20,321.98 143.77,317.02 145.16,314.00 C146.55,310.98 149.44,305.87 151.59,302.65 C153.74,299.43 157.56,293.58 160.07,289.65 C164.82,282.22 196.53,249.75 202.64,246.06 C204.37,245.02 206.08,243.67 206.45,243.08 C207.39,241.56 222.03,232.00 223.41,232.00 C224.03,232.00 226.12,230.70 228.05,229.11 C231.81,226.01 242.77,220.67 249.84,218.48 C252.23,217.74 254.93,216.49 255.84,215.70 C256.76,214.91 258.62,214.02 260.00,213.72 C261.38,213.43 265.20,212.44 268.50,211.53 C271.80,210.62 277.20,209.18 280.50,208.34 C283.80,207.50 287.98,206.18 289.78,205.41 C291.59,204.63 295.44,204.00 298.33,204.00 C301.23,204.00 304.12,203.48 304.75,202.85 C306.37,201.23 357.67,201.22 360.70,202.84 C361.89,203.48 365.32,204.00 368.32,204.00 C371.32,204.00 375.06,204.67 376.64,205.49 C378.21,206.32 381.20,206.99 383.28,206.99 C385.36,207.00 389.73,208.12 393.00,209.50 C396.27,210.88 399.88,212.00 401.03,212.00 C403.60,212.00 412.78,214.90 415.50,216.57 C416.60,217.25 418.96,218.11 420.75,218.48 C426.96,219.78 463.21,239.38 469.70,244.95 C470.36,245.52 473.06,247.17 475.70,248.62 C478.34,250.07 482.06,252.43 483.96,253.88 C485.86,255.32 488.40,257.17 489.59,258.00 C498.85,264.40 503.10,267.45 507.00,270.49 C509.48,272.42 512.17,274.34 513.00,274.75 C513.83,275.16 519.15,278.56 524.84,282.31 C530.52,286.06 536.90,290.02 539.02,291.13 C541.13,292.23 543.43,293.81 544.11,294.64 C545.69,296.54 552.40,300.00 554.51,300.00 C555.38,300.00 557.54,300.75 559.30,301.66 C561.06,302.57 563.85,303.67 565.50,304.10 C570.28,305.35 583.33,309.92 585.24,311.01 C586.19,311.55 588.53,312.00 590.43,312.00 C592.33,312.00 594.16,312.45 594.50,313.00 C594.84,313.55 597.36,314.00 600.09,314.00 C602.83,314.00 606.68,314.67 608.65,315.50 C610.63,316.33 614.57,317.00 617.42,317.00 C620.27,317.00 623.12,317.52 623.76,318.16 C624.40,318.80 627.21,319.24 630.02,319.14 C632.82,319.04 636.55,319.61 638.31,320.40 C640.06,321.20 643.08,322.09 645.00,322.38 C654.78,323.88 658.85,324.82 662.50,326.42 C664.70,327.39 668.95,328.83 671.95,329.63 C679.14,331.54 697.04,340.68 707.30,347.68 C718.26,355.15 741.53,378.25 748.78,388.86 C757.93,402.24 768.33,422.30 775.31,440.00 C779.23,449.94 781.11,456.00 786.16,475.00 C786.67,476.92 787.51,480.98 788.01,484.00 C788.52,487.02 789.67,492.88 790.57,497.00 C792.30,504.95 793.32,512.77 794.92,530.26 C795.46,536.18 796.17,541.47 796.51,542.02 C796.85,542.56 797.52,546.04 798.01,549.75 C799.64,562.14 804.47,580.08 808.06,587.12 C809.13,589.21 810.00,591.35 810.00,591.87 C810.00,592.39 813.56,600.17 817.92,609.16 C822.28,618.15 827.26,629.33 828.98,634.00 C830.71,638.67 832.51,643.46 832.99,644.63 C834.61,648.65 837.96,663.74 840.07,676.50 C841.83,687.14 842.35,707.48 840.93,710.14 C840.27,711.36 839.37,714.86 838.91,717.93 C836.50,734.12 834.61,741.57 830.35,751.63 C828.03,757.09 823.67,757.27 809.57,752.50 C803.87,750.58 798.44,749.00 797.49,749.00 C796.54,749.00 793.68,748.35 791.13,747.55 C779.21,743.82 778.23,743.66 775.00,745.00 C773.30,745.70 771.25,747.55 770.45,749.10 C767.77,754.28 758.82,762.21 752.32,765.15 ZM 746.74 764.77 C749.36,764.09 751.72,763.26 752.00,762.92 C752.28,762.58 754.35,761.14 756.60,759.73 C758.86,758.32 763.52,753.99 766.96,750.13 C772.48,743.92 773.74,743.01 777.68,742.42 C780.52,741.99 782.56,742.16 783.28,742.88 C783.89,743.49 786.13,744.00 788.25,744.00 C790.37,744.00 793.31,744.62 794.80,745.37 C796.28,746.12 799.75,747.07 802.50,747.47 C805.25,747.86 808.62,748.78 810.00,749.49 C813.86,751.50 821.24,753.51 823.48,753.16 C826.55,752.68 828.42,750.10 830.49,743.50 C831.52,740.20 832.69,737.05 833.08,736.50 C833.95,735.28 835.54,725.76 836.11,718.99 C836.31,720.78 836.77,719.32 837.45,714.64 C837.78,712.37 837.84,711.05 837.61,710.57 C837.73,710.52 837.86,710.50 838.00,710.50 C839.24,710.50 839.55,708.23 839.78,697.17 C839.97,688.22 839.72,684.05 839.03,684.48 C838.62,684.73 838.27,685.32 838.10,685.95 C838.35,684.83 838.27,683.27 837.87,682.18 C837.39,680.91 837.00,677.84 837.00,675.35 C837.00,671.11 834.72,659.98 832.93,655.50 C832.50,654.40 831.92,652.15 831.66,650.50 C831.21,647.60 828.90,640.61 827.04,636.50 C826.55,635.40 824.26,630.11 821.96,624.74 C819.65,619.37 817.37,614.73 816.89,614.43 C816.40,614.13 816.00,612.84 816.00,611.56 C816.00,610.29 815.34,608.69 814.52,608.02 C811.94,605.88 802.00,582.62 802.00,578.72 C802.00,577.84 801.61,576.88 801.13,576.58 C800.66,576.29 800.01,574.35 799.68,572.27 C799.36,570.20 798.35,565.35 797.43,561.50 C795.12,551.74 794.10,545.15 793.04,533.00 C792.54,527.22 791.41,518.22 790.54,513.00 L 787.98 497.66 C787.44,494.44 786.68,491.29 786.28,490.66 C785.88,490.02 785.25,487.25 784.88,484.50 C783.34,473.28 775.96,448.63 771.62,440.23 C770.73,438.51 770.00,436.46 770.00,435.68 C770.00,433.41 753.31,401.41 748.69,394.83 C746.39,391.55 743.97,387.92 743.33,386.77 C742.68,385.62 735.71,378.19 727.83,370.25 C717.64,359.99 710.75,354.01 704.00,349.57 C693.49,342.66 678.21,334.97 670.50,332.71 C667.75,331.91 663.73,330.51 661.57,329.60 C659.41,328.69 654.68,327.30 651.07,326.51 C647.46,325.72 641.35,324.38 637.50,323.54 C633.65,322.69 629.28,322.00 627.80,322.00 C626.31,322.00 624.06,321.59 622.80,321.10 C621.53,320.60 615.10,319.46 608.50,318.55 C595.45,316.77 593.88,316.42 580.50,312.45 C559.17,306.11 542.54,298.54 527.13,288.13 C524.17,286.13 520.70,283.83 519.42,283.00 C511.47,277.90 501.05,270.59 498.39,268.24 C496.67,266.73 493.33,264.38 490.97,263.00 C488.60,261.62 484.69,258.81 482.27,256.75 C479.86,254.69 477.38,253.00 476.76,253.00 C476.15,253.00 469.92,249.17 462.93,244.49 C452.05,237.21 439.64,230.41 425.00,223.70 C418.18,220.58 399.95,214.00 398.12,214.00 C397.09,214.00 394.30,213.31 391.91,212.47 C377.63,207.43 361.83,205.56 333.50,205.54 C300.99,205.53 287.48,207.70 262.00,217.04 C257.33,218.75 250.80,221.09 247.50,222.24 C244.20,223.39 238.80,226.03 235.50,228.11 C232.20,230.20 226.80,233.33 223.50,235.08 C220.20,236.83 215.86,239.66 213.85,241.38 C211.85,243.10 208.51,245.62 206.43,247.00 C204.36,248.38 200.56,251.52 197.99,254.00 C176.44,274.80 167.43,284.15 165.24,288.00 C163.83,290.48 161.71,293.62 160.53,295.00 C159.36,296.38 157.11,299.52 155.54,302.00 C153.97,304.48 151.88,307.69 150.89,309.15 C149.90,310.61 148.77,313.08 148.39,314.65 C148.01,316.22 146.86,318.57 145.85,319.88 C144.83,321.20 144.00,322.72 144.00,323.27 C144.00,323.82 142.99,325.88 141.75,327.86 C139.65,331.22 134.20,343.63 131.80,350.50 C131.23,352.15 129.74,356.20 128.49,359.50 C126.45,364.90 125.36,369.11 120.42,390.71 C119.64,394.12 119.00,398.39 119.00,400.21 C119.00,402.02 118.30,406.86 117.44,410.96 C116.59,415.06 116.13,419.40 116.43,420.59 C116.74,421.79 116.48,424.96 115.87,427.64 C115.25,430.31 114.38,441.27 113.92,452.00 C113.04,472.87 111.93,484.89 110.01,494.50 C107.26,508.23 101.86,528.58 99.44,534.34 C94.84,545.29 82.94,569.28 78.04,577.50 C75.41,581.90 72.02,587.97 70.50,591.00 C68.99,594.03 66.96,597.62 66.01,599.00 C63.19,603.05 52.70,623.99 50.75,629.46 C46.46,641.45 44.69,647.31 41.35,660.50 C37.82,674.47 37.81,674.55 37.82,696.83 C37.82,710.00 38.25,720.26 38.87,721.83 C39.45,723.30 40.58,727.65 41.40,731.50 C43.03,739.21 45.58,746.79 47.20,748.74 C48.68,750.52 53.52,750.28 60.50,748.08 C64.21,746.90 65.78,746.28 65.22,746.20 C67.89,745.61 70.59,744.92 73.00,744.18 C76.54,743.10 81.47,742.55 86.82,742.65 L 95.14 742.80 L 98.77 747.15 C105.94,755.72 109.74,758.74 116.17,760.96 C119.65,762.17 123.78,763.40 125.35,763.71 C129.29,764.47 138.78,761.58 149.75,756.28 C158.04,752.27 159.85,751.78 167.25,751.51 C173.34,751.28 176.95,750.56 181.05,748.74 C184.10,747.39 188.19,745.76 190.14,745.12 C194.40,743.71 198.00,740.55 198.00,738.21 C198.01,737.27 198.84,735.14 199.85,733.48 C200.87,731.81 202.23,728.83 202.89,726.84 C203.54,724.86 205.95,721.38 208.24,719.12 C211.71,715.68 213.06,714.99 216.45,714.96 C218.68,714.95 221.62,714.29 223.00,713.50 C224.51,712.64 228.35,712.06 232.68,712.04 C236.64,712.02 241.12,711.53 242.64,710.95 C245.43,709.89 249.95,709.04 258.99,708.11 C258.52,708.21 258.03,708.32 257.50,708.44 C252.26,709.62 251.96,709.81 255.14,709.90 C257.13,709.95 260.28,709.34 262.14,708.54 C263.03,708.15 263.69,707.84 264.08,707.62 C271.78,706.92 282.08,706.15 296.02,705.19 C302.35,704.76 308.06,704.08 308.71,703.68 C310.52,702.56 316.71,701.77 323.00,701.58 L 325.00 702.00 C326.92,702.41 330.52,702.74 333.00,702.75 L 337.50 702.77 L 333.50 701.94 C333.75,701.98 333.99,702.01 334.23,702.05 C340.90,703.07 342.50,703.02 346.00,701.62 C349.34,700.28 354.30,700.00 374.59,700.00 C392.39,700.00 399.73,699.66 401.32,698.75 C402.93,697.83 411.23,697.50 433.00,697.50 C454.77,697.50 463.07,697.83 464.68,698.75 C466.29,699.67 474.17,700.00 494.21,700.00 C517.71,700.00 521.88,700.23 523.85,701.61 C525.80,702.97 528.07,703.12 538.82,702.56 C547.65,702.10 552.56,702.26 555.00,703.10 C556.92,703.75 564.12,704.67 571.00,705.13 C601.62,707.16 605.77,707.56 607.10,708.62 C607.87,709.24 612.02,709.77 616.31,709.80 C620.61,709.83 624.66,710.30 625.31,710.84 C625.97,711.38 629.65,712.06 633.50,712.35 C649.74,713.56 654.84,714.59 657.03,717.10 C658.47,718.74 659.29,719.11 659.65,718.25 C659.93,717.56 660.80,717.00 661.58,717.00 C659.74,717.02 658.79,719.71 660.42,720.33 C661.13,720.60 662.02,722.71 662.39,725.01 C662.75,727.31 663.69,730.73 664.48,732.60 C666.48,737.40 667.05,736.82 665.47,731.58 C665.29,730.96 665.13,730.31 664.99,729.67 C665.82,733.27 667.69,737.67 669.64,739.98 C672.52,743.41 678.25,747.56 685.62,751.58 C689.69,753.79 692.15,754.31 700.50,754.73 C708.07,755.11 710.99,755.66 712.50,756.98 C721.23,764.61 735.13,767.77 746.74,764.77 ZM 836.02 685.71 C835.94,685.61 835.85,685.50 835.77,685.38 C834.54,683.80 832.72,681.61 831.73,680.52 C830.43,679.10 829.52,677.18 829.20,675.44 C829.64,677.42 831.06,679.78 833.45,682.50 C834.45,683.64 835.36,684.79 836.02,685.71 ZM 56.37 747.79 C53.95,748.26 52.24,748.42 51.01,748.16 C52.20,748.24 54.09,748.10 56.37,747.79 ZM 838.07 686.08 C838.02,686.29 838.00,686.49 838.00,686.69 C838.00,687.13 837.87,687.31 837.61,687.22 C837.71,687.03 837.82,686.79 837.94,686.50 C837.99,686.37 838.03,686.23 838.07,686.08 ZM 48.89 746.76 C48.24,745.76 47.89,744.24 47.60,742.06 C47.86,744.04 48.33,745.69 48.89,746.76 Z" fill="rgb(224,229,160)"/>
<path d="M 56.37 747.79 C58.98,747.45 62.09,746.89 65.22,746.20 C65.78,746.28 64.21,746.90 60.50,748.08 C53.52,750.28 48.68,750.52 47.20,748.74 C45.58,746.79 43.03,739.21 41.40,731.50 C40.58,727.65 39.45,723.30 38.87,721.83 C38.25,720.26 37.82,710.00 37.82,696.83 C37.81,674.55 37.82,674.47 41.35,660.50 C44.69,647.31 46.46,641.45 50.75,629.46 C52.70,623.99 63.19,603.05 66.01,599.00 C66.96,597.62 68.99,594.03 70.50,591.00 C72.02,587.97 75.41,581.90 78.04,577.50 C82.94,569.28 94.84,545.29 99.44,534.34 C101.86,528.58 107.26,508.23 110.01,494.50 C111.93,484.89 113.04,472.87 113.92,452.00 C114.38,441.27 115.25,430.31 115.87,427.64 C116.48,424.96 116.74,421.79 116.43,420.59 C116.13,419.40 116.59,415.06 117.44,410.96 C118.30,406.86 119.00,402.02 119.00,400.21 C119.00,398.39 119.64,394.12 120.42,390.71 C125.36,369.11 126.45,364.90 128.49,359.50 C129.74,356.20 131.23,352.15 131.80,350.50 C134.20,343.63 139.65,331.22 141.75,327.86 C142.99,325.88 144.00,323.82 144.00,323.27 C144.00,322.72 144.83,321.20 145.85,319.88 C146.86,318.57 148.01,316.22 148.39,314.65 C148.77,313.08 149.90,310.61 150.89,309.15 C151.88,307.69 153.97,304.48 155.54,302.00 C157.11,299.52 159.36,296.38 160.53,295.00 C161.71,293.62 163.83,290.48 165.24,288.00 C167.43,284.15 176.44,274.80 197.99,254.00 C200.56,251.52 204.36,248.38 206.43,247.00 C208.51,245.62 211.85,243.10 213.85,241.38 C215.86,239.66 220.20,236.83 223.50,235.08 C226.80,233.33 232.20,230.20 235.50,228.11 C238.80,226.03 244.20,223.39 247.50,222.24 C250.80,221.09 257.33,218.75 262.00,217.04 C287.48,207.70 300.99,205.53 333.50,205.54 C361.83,205.56 377.63,207.43 391.91,212.47 C394.30,213.31 397.09,214.00 398.12,214.00 C399.95,214.00 418.18,220.58 425.00,223.70 C439.64,230.41 452.05,237.21 462.93,244.49 C469.92,249.17 476.15,253.00 476.76,253.00 C477.38,253.00 479.86,254.69 482.27,256.75 C484.69,258.81 488.60,261.62 490.97,263.00 C493.33,264.38 496.67,266.73 498.39,268.24 C501.05,270.59 511.47,277.90 519.42,283.00 C520.70,283.83 524.17,286.13 527.13,288.13 C542.54,298.54 559.17,306.11 580.50,312.45 C593.88,316.42 595.45,316.77 608.50,318.55 C615.10,319.46 621.53,320.60 622.80,321.10 C624.06,321.59 626.31,322.00 627.80,322.00 C629.28,322.00 633.65,322.69 637.50,323.54 C641.35,324.38 647.46,325.72 651.07,326.51 C654.68,327.30 659.41,328.69 661.57,329.60 C663.73,330.51 667.75,331.91 670.50,332.71 C678.21,334.97 693.49,342.66 704.00,349.57 C710.75,354.01 717.64,359.99 727.83,370.25 C735.71,378.19 742.68,385.62 743.33,386.77 C743.97,387.92 746.39,391.55 748.69,394.83 C753.31,401.41 770.00,433.41 770.00,435.68 C770.00,436.46 770.73,438.51 771.62,440.23 C775.96,448.63 783.34,473.28 784.88,484.50 C785.25,487.25 785.88,490.02 786.28,490.66 C786.68,491.29 787.44,494.44 787.98,497.66 L 790.54 513.00 C791.41,518.22 792.54,527.22 793.04,533.00 C794.10,545.15 795.12,551.74 797.43,561.50 C798.35,565.35 799.36,570.20 799.68,572.27 C800.01,574.35 800.66,576.29 801.13,576.58 C801.61,576.88 802.00,577.84 802.00,578.72 C802.00,582.62 811.94,605.88 814.52,608.02 C815.34,608.69 816.00,610.29 816.00,611.56 C816.00,612.84 816.40,614.13 816.89,614.43 C817.37,614.73 819.65,619.37 821.96,624.74 C824.26,630.11 826.55,635.40 827.04,636.50 C828.90,640.61 831.21,647.60 831.66,650.50 C831.92,652.15 832.50,654.40 832.93,655.50 C834.72,659.98 837.00,671.11 837.00,675.35 C837.00,677.84 837.39,680.91 837.87,682.18 C838.27,683.27 838.35,684.83 838.10,685.95 C838.09,686.00 838.08,686.04 838.07,686.08 C838.03,686.23 837.99,686.37 837.94,686.50 C837.82,686.79 837.71,687.03 837.61,687.22 C837.28,687.12 836.75,686.62 836.02,685.71 C835.36,684.79 834.45,683.64 833.45,682.50 C831.06,679.78 829.64,677.42 829.20,675.44 C829.01,674.36 829.03,673.36 829.33,672.58 C829.63,671.79 829.26,670.63 828.50,670.00 C827.75,669.38 826.84,667.56 826.49,665.97 C826.15,664.39 824.99,661.29 823.93,659.09 C822.87,656.89 822.00,654.61 822.00,654.02 C822.00,652.31 817.89,640.56 817.10,640.00 C816.71,639.73 814.66,634.33 812.55,628.00 C810.45,621.67 807.24,613.80 805.43,610.50 C801.10,602.60 797.42,592.63 795.60,583.84 C794.79,579.93 793.65,576.25 793.06,575.66 C792.48,575.08 792.00,573.03 792.00,571.12 C792.00,567.54 790.81,563.00 788.35,557.14 C787.57,555.30 787.21,552.92 787.55,551.85 C787.89,550.78 787.57,549.18 786.83,548.30 C785.92,547.20 785.44,543.03 785.30,535.10 C785.07,521.22 784.08,511.17 782.88,510.43 C782.40,510.13 782.00,508.94 782.00,507.78 C782.00,505.79 776.91,488.10 774.93,483.20 C774.42,481.94 774.00,479.61 774.00,478.02 C774.00,476.43 772.60,471.61 770.89,467.31 C769.18,463.02 766.67,456.58 765.31,453.00 C763.96,449.42 762.04,445.15 761.05,443.50 C760.05,441.85 758.69,438.70 758.00,436.50 C756.18,430.61 751.25,420.45 749.51,419.01 C748.68,418.32 748.00,417.24 748.00,416.60 C748.00,415.97 746.64,413.95 744.97,412.13 C743.30,410.31 740.31,406.27 738.32,403.16 C734.01,396.41 723.94,384.00 722.78,384.00 C722.33,384.00 721.47,382.92 720.86,381.60 C720.26,380.28 718.04,378.42 715.91,377.46 C713.79,376.51 711.26,374.83 710.28,373.73 C707.92,371.09 694.28,361.00 693.07,361.00 C692.54,361.00 689.55,358.75 686.40,356.00 C683.26,353.25 679.72,351.00 678.53,351.00 C677.35,351.00 675.41,350.10 674.23,349.00 C673.05,347.90 671.80,347.00 671.44,347.00 C671.09,347.00 669.38,346.38 667.65,345.62 C664.53,344.25 646.76,338.73 640.00,337.02 C638.08,336.54 633.12,335.64 629.00,335.02 C624.88,334.40 617.90,333.22 613.50,332.38 C609.10,331.55 601.22,330.45 596.00,329.94 C585.27,328.90 578.44,327.46 575.50,325.62 C574.40,324.93 568.10,322.69 561.50,320.64 C554.90,318.59 545.90,315.16 541.50,313.01 C537.10,310.87 532.38,308.63 531.00,308.04 C529.62,307.45 526.25,305.71 523.50,304.17 C520.75,302.63 515.35,299.66 511.50,297.57 C500.42,291.55 497.75,289.86 493.75,286.32 C491.68,284.49 489.43,283.00 488.75,283.00 C486.90,282.99 475.85,277.08 473.24,274.69 C470.27,271.99 464.90,268.71 457.50,265.09 C454.20,263.47 449.95,260.99 448.06,259.58 C446.16,258.16 444.14,256.98 443.56,256.97 C442.98,256.95 440.71,256.09 438.52,255.05 C436.33,254.01 434.18,253.39 433.75,253.66 C433.31,253.92 431.58,252.99 429.90,251.57 C427.83,249.83 425.66,249.00 423.16,249.00 C420.87,249.00 418.07,248.05 415.79,246.50 C413.76,245.12 411.17,244.00 410.02,244.00 C408.88,244.00 405.21,242.85 401.86,241.44 C394.12,238.18 384.18,237.08 361.00,236.92 C335.08,236.74 329.61,236.90 320.50,238.11 C316.10,238.69 309.00,239.19 304.72,239.21 C298.47,239.24 296.70,239.59 295.72,241.00 C294.87,242.20 292.46,242.96 287.99,243.45 C284.42,243.83 279.61,245.00 277.30,246.05 C274.99,247.10 269.59,248.89 265.30,250.03 C261.01,251.17 257.05,252.64 256.50,253.31 C254.24,256.06 245.97,260.07 239.57,261.52 C238.51,261.76 236.24,263.31 234.52,264.98 C232.81,266.64 230.73,268.00 229.91,268.00 C229.08,268.00 225.65,271.08 222.28,274.85 C218.90,278.62 214.76,282.27 213.07,282.97 C211.38,283.67 210.00,284.69 210.00,285.24 C210.00,286.85 192.81,303.53 189.25,305.37 C187.46,306.30 186.00,307.44 186.00,307.92 C186.00,308.40 184.75,310.12 183.23,311.76 C181.70,313.39 179.38,316.82 178.06,319.37 C176.75,321.93 175.07,324.53 174.34,325.14 C173.60,325.75 173.00,326.69 173.00,327.23 C173.00,327.78 171.26,330.31 169.13,332.86 C167.01,335.41 164.95,338.53 164.56,339.78 C164.17,341.03 162.32,344.63 160.45,347.78 C158.59,350.93 156.26,355.08 155.28,357.00 C154.30,358.92 152.76,361.32 151.85,362.33 C150.94,363.34 149.99,365.59 149.73,367.33 C149.47,369.07 147.17,376.35 144.63,383.50 C135.37,409.54 133.04,422.45 129.98,464.50 C128.44,485.67 121.53,520.11 117.06,528.90 C116.05,530.88 113.82,536.97 112.12,542.44 C110.41,547.91 107.79,554.21 106.30,556.44 C104.81,558.67 102.40,562.75 100.94,565.50 C94.89,576.86 92.71,580.65 90.55,583.51 C89.30,585.16 86.67,589.66 84.71,593.51 C82.75,597.35 79.52,602.97 77.54,606.00 C67.87,620.75 57.88,646.49 53.31,668.43 C50.70,680.96 49.96,697.14 50.98,719.00 C51.37,727.41 51.16,728.99 49.18,732.77 C47.34,736.27 47.06,737.95 47.60,742.06 C47.86,744.04 48.33,745.69 48.89,746.76 C49.20,747.34 49.54,747.75 49.89,747.94 C50.11,748.06 50.49,748.13 51.01,748.16 C52.24,748.42 53.95,748.26 56.37,747.79 ZM 91.92 734.36 C90.06,729.56 91.28,717.25 94.27,710.73 C100.68,696.72 118.77,683.45 137.76,678.83 C159.05,673.65 178.40,677.42 191.55,689.31 C196.50,693.79 200.89,700.45 199.68,701.65 C199.32,702.01 196.41,700.90 193.21,699.19 C184.71,694.66 172.28,693.27 160.86,695.56 C156.26,696.48 150.48,697.59 148.00,698.01 C142.53,698.95 137.21,700.59 135.65,701.84 C135.02,702.34 131.47,703.07 127.76,703.46 C124.05,703.84 120.79,704.53 120.50,704.99 C120.22,705.45 118.00,706.79 115.56,707.97 C109.41,710.95 104.40,716.88 99.88,726.52 C95.09,736.75 93.47,738.34 91.92,734.36 ZM 660.42 720.33 C658.79,719.71 659.74,717.02 661.58,717.00 L 661.61 717.00 L 661.64 717.00 C662.56,716.99 662.97,716.84 662.91,716.02 C662.90,715.93 662.89,715.82 662.87,715.71 C662.75,715.04 662.42,714.04 661.88,712.54 C660.88,709.79 661.13,708.69 663.97,703.06 C672.43,686.29 690.48,677.17 712.99,678.28 C725.57,678.90 732.92,680.76 743.13,685.91 C761.64,695.24 771.68,707.83 772.77,723.06 C773.21,729.21 773.08,729.97 771.65,729.42 C770.76,729.08 768.19,725.47 765.94,721.40 C763.70,717.33 761.48,714.00 761.02,714.00 C760.56,714.00 758.00,712.31 755.34,710.25 C747.34,704.04 739.60,701.00 731.82,701.00 C729.12,701.00 725.69,700.39 724.20,699.64 C720.77,697.90 711.39,696.87 698.00,696.74 C688.52,696.65 687.00,696.89 682.39,699.26 C675.48,702.82 671.30,706.50 668.95,711.09 C667.88,713.20 666.12,715.40 665.05,715.97 C663.38,716.87 663.26,717.44 664.16,720.04 C664.74,721.70 664.98,723.98 664.68,725.10 C664.41,726.13 664.56,727.79 664.99,729.67 L 664.99 729.67 C665.13,730.31 665.29,730.96 665.47,731.58 C667.05,736.82 666.48,737.40 664.48,732.60 C663.69,730.73 662.75,727.31 662.39,725.01 C662.02,722.71 661.13,720.60 660.42,720.33 ZM 257.50 708.44 C258.03,708.32 258.52,708.21 258.99,708.11 C260.55,707.95 262.24,707.79 264.08,707.62 C263.69,707.84 263.03,708.15 262.14,708.54 C260.28,709.34 257.13,709.95 255.14,709.90 C251.96,709.81 252.26,709.62 257.50,708.44 ZM 325.00 702.00 L 323.00 701.58 C326.77,701.46 330.59,701.56 333.50,701.94 L 337.50 702.77 L 333.00 702.75 C330.52,702.74 326.92,702.41 325.00,702.00 ZM 837.45 714.64 C836.77,719.32 836.31,720.78 836.11,718.99 C836.20,717.91 836.27,716.90 836.30,716.00 C836.43,712.39 836.77,710.89 837.61,710.57 C837.84,711.05 837.78,712.37 837.45,714.64 Z" fill="rgb(227,241,60)"/>
</g>
</svg>
